<svg width="16" height="16" viewBox="0 0 16 16" fill="none" xmlns="http://www.w3.org/2000/svg">
<path d="M14.25 0.5H1.75C1.41858 0.500331 1.10083 0.632133 0.866482 0.866482C0.632133 1.10083 0.500331 1.41858 0.5 1.75V14.25C0.500331 14.5814 0.632133 14.8992 0.866482 15.1335C1.10083 15.3679 1.41858 15.4997 1.75 15.5H14.25C14.5814 15.4997 14.8992 15.3679 15.1335 15.1335C15.3679 14.8992 15.4997 14.5814 15.5 14.25V1.75C15.4997 1.41858 15.3679 1.10083 15.1335 0.866482C14.8992 0.632133 14.5814 0.500331 14.25 0.5ZM1.75 14.25L14.25 1.75V14.25H1.75Z" fill="#4F4F4F"/>
</svg>
