<svg width="42" height="42" viewBox="0 0 42 42" fill="none" xmlns="http://www.w3.org/2000/svg">
<circle cx="21" cy="21" r="21" fill="#F2F2F2"/>
<rect x="9.52778" y="14.7778" width="14.1944" height="15.9444" rx="2.72222" fill="#1B7DC1" stroke="#4D57A2" stroke-width="1.55556"/>
<path d="M18.666 14.7793H20.9993C22.7176 14.7793 24.1105 16.1722 24.1105 17.8904V27.2237H20.2216C19.3625 27.2237 18.666 26.5273 18.666 25.6682V14.7793Z" fill="#E5E5E5"/>
<rect x="9.52778" y="14.7778" width="14.1944" height="15.9444" rx="2.72222" stroke="#4D57A2" stroke-width="1.55556"/>
<path d="M21 11.2778H29.75C31.2534 11.2778 32.4722 12.4966 32.4722 14V24.5C32.4722 26.0034 31.2534 27.2222 29.75 27.2222H21C19.4966 27.2222 18.2778 26.0034 18.2778 24.5V14C18.2778 12.4966 19.4966 11.2778 21 11.2778Z" stroke="#4D57A2" stroke-width="1.55556"/>
<path d="M15.7484 17.7687L22.7464 17.7673V19.3873L15.7484 19.3886V20.2094C15.7484 20.6089 15.2781 20.8033 14.9938 20.5225L13.3422 18.881C13.1672 18.7082 13.1672 18.4382 13.3422 18.2654L14.9938 16.6239C15.2672 16.3539 15.7484 16.5483 15.7484 16.9371V17.7687Z" fill="#E5E5E5"/>
<path d="M21.0625 21.734L22.714 23.3755C22.7557 23.4166 22.7888 23.4654 22.8113 23.5192C22.8339 23.5729 22.8455 23.6305 22.8455 23.6887C22.8455 23.7468 22.8339 23.8044 22.8113 23.8582C22.7888 23.9119 22.7557 23.9607 22.714 24.0019L21.0625 25.6434C20.789 25.9134 20.3078 25.719 20.3078 25.3302V24.4986L13.3098 24.5V22.8801L20.3078 22.8787V22.0472C20.3057 21.9599 20.3302 21.8741 20.3782 21.8008C20.4262 21.7276 20.4955 21.6703 20.577 21.6365C20.6585 21.6027 20.7483 21.5939 20.8349 21.6113C20.9216 21.6287 21.0008 21.6714 21.0625 21.734Z" fill="#E5E5E5"/>
<path d="M19.0548 17.7679L22.7462 17.7666V19.3865L19.0548 19.3879V17.7679Z" fill="url(#paint0_linear_7709_133612)"/>
<path d="M13.3096 22.8794L17.4992 22.878V24.4979L13.3096 24.4993V22.8794Z" fill="url(#paint1_linear_7709_133612)"/>
<path d="M13.3096 22.8778L17.4992 22.8765V24.4964L13.3096 24.4977V22.8778Z" fill="#E5E5E5"/>
<path d="M21.063 21.7329L22.7146 23.3745C22.7562 23.4156 22.7893 23.4644 22.8118 23.5181C22.8344 23.5719 22.846 23.6295 22.846 23.6876C22.846 23.7458 22.8344 23.8034 22.8118 23.8571C22.7893 23.9109 22.7562 23.9597 22.7146 24.0008L21.063 25.6424C20.7896 25.9123 20.3083 25.718 20.3083 25.3292V24.4976L17.5 24.499V22.879L20.3083 22.8777V22.0461C20.3062 21.9589 20.3307 21.8731 20.3788 21.7998C20.4268 21.7266 20.496 21.6693 20.5775 21.6355C20.659 21.6017 20.7489 21.5929 20.8355 21.6103C20.9221 21.6277 21.0014 21.6704 21.063 21.7329Z" fill="#1B7DC1"/>
<defs>
<linearGradient id="paint0_linear_7709_133612" x1="13.3096" y1="17.7666" x2="23.8216" y2="20.9664" gradientUnits="userSpaceOnUse">
<stop stop-color="#4D57A2"/>
<stop offset="1" stop-color="#4D57A2"/>
</linearGradient>
<linearGradient id="paint1_linear_7709_133612" x1="13.3096" y1="17.7666" x2="23.8216" y2="20.9664" gradientUnits="userSpaceOnUse">
<stop stop-color="#4D57A2"/>
<stop offset="1" stop-color="#4D57A2"/>
</linearGradient>
</defs>
</svg>
