<svg width="80" height="80" viewBox="0 0 80 80" fill="none" xmlns="http://www.w3.org/2000/svg">
<path d="M42.9322 40.0505C42.9322 50.7433 42.9322 61.4532 42.9322 72.1461C42.9322 73.0781 42.7458 73.9423 42.2036 74.7049C40.9665 76.4842 38.6449 76.4165 37.4926 74.5863C37.0689 73.8915 36.8486 73.1459 36.8486 72.3325C36.8486 50.7942 36.8486 29.2559 36.8486 7.71759C36.8486 6.85334 37.0689 6.03994 37.5434 5.31126C38.6957 3.56583 41.0682 3.56583 42.2205 5.29432C42.7289 6.07383 42.9322 6.92113 42.9322 7.8701C42.9322 18.5969 42.9322 29.3237 42.9322 40.0505Z" fill="#1B7DC1"/>
<path d="M30.3757 45.5239C29.1047 44.8291 28.1219 43.8293 27.4949 42.5245C27.2746 42.0669 27.0034 41.9483 26.5289 41.9653C21.4452 41.9822 16.3614 41.9822 11.2776 41.9822C9.68467 41.9653 9.00684 42.6261 9.00684 44.2191C9.00684 47.1338 9.00684 50.0315 9.00684 52.9462C9.00684 55.8779 9.00684 58.8265 9.00684 61.7581C9.00684 63.2155 9.73551 63.9272 11.1929 63.9442C12.8027 63.9611 14.4126 63.9442 16.0225 63.9442C20.2589 63.9442 24.4954 63.9442 28.7319 63.9442C30.2062 63.9442 30.9349 63.2155 30.9349 61.7751C30.9349 56.6913 30.9349 51.6075 30.9518 46.5237C30.9518 46.0323 30.8163 45.7611 30.3757 45.5239ZM24.1396 48.4386C23.3092 51.2347 22.4619 54.0477 21.5807 56.8269C21.3435 57.5894 20.5809 57.7758 19.9539 57.2505C18.666 56.149 17.412 55.0136 16.1411 53.8952C15.6835 53.4716 15.5649 52.9801 15.9886 52.4887C16.4122 51.9973 16.9206 52.0311 17.3951 52.4379C18.2932 53.2174 19.1744 53.9969 20.1403 54.8442C20.8182 52.6243 21.4621 50.523 22.0891 48.4217C22.1399 48.2353 22.1908 48.0319 22.2755 47.8624C22.5128 47.3371 22.9025 47.049 23.4956 47.2354C24.0718 47.4219 24.309 47.8794 24.1396 48.4386Z" fill="#4D57A2"/>
<path d="M30.9356 15.8514C30.9356 14.1738 30.2747 13.5129 28.5801 13.5129C22.8524 13.5129 17.1246 13.5129 11.38 13.5129C9.66842 13.5129 9.00753 14.1738 9.00753 15.8514C9.00753 18.7323 9.00753 21.6131 9.00753 24.4939C9.00753 27.4594 8.99059 30.425 9.00753 33.3905C9.00753 34.7462 9.75315 35.4918 11.1088 35.4918C16.2265 35.4918 21.3272 35.4918 26.4449 35.5087C26.9025 35.5087 27.1397 35.3562 27.36 34.9665C28.0548 33.6955 29.0546 32.6957 30.3425 32.0687C30.8339 31.8315 30.9525 31.5434 30.9525 31.035C30.9186 25.9682 30.9356 20.9013 30.9356 15.8514ZM24.0894 20.2235C23.4116 22.4773 22.6999 24.7481 22.022 27.0019C21.8865 27.4594 21.7678 27.9339 21.5984 28.3745C21.3103 29.1371 20.5986 29.3404 19.9716 28.8151C18.6667 27.6967 17.3788 26.5613 16.1079 25.409C15.6673 25.0192 15.5995 24.5278 16.0062 24.0533C16.4299 23.5619 16.9382 23.5619 17.4127 23.9855C18.3109 24.7481 19.192 25.5445 20.158 26.4088C20.8697 24.0872 21.5475 21.8842 22.2254 19.6812C22.3779 19.1559 22.6321 18.7492 23.2591 18.7492C23.9708 18.7492 24.3436 19.3932 24.0894 20.2235Z" fill="#4D57A2"/>
<path d="M68.1814 13.3434C65.3006 13.3434 62.4197 13.3434 59.5559 13.3434C56.6581 13.3434 53.7434 13.3434 50.8457 13.3434C49.2866 13.3434 48.558 14.0721 48.558 15.6142C48.558 20.698 48.5749 25.7648 48.541 30.8486C48.541 31.357 48.6596 31.645 49.1341 31.8823C50.422 32.5262 51.4388 33.4921 52.1166 34.78C52.3539 35.2206 52.6419 35.3393 53.1164 35.3393C58.1155 35.3223 63.0976 35.3223 68.0966 35.3223C69.8251 35.3223 70.5199 34.6445 70.5199 32.9329C70.5199 27.1713 70.5199 21.4266 70.5199 15.665C70.5199 14.0551 69.7743 13.3434 68.1814 13.3434ZM63.267 27.7136C62.7248 28.2728 62.2164 28.0356 61.725 27.578C61.0471 26.9341 60.3354 26.324 59.7084 25.6631C59.3186 25.2564 59.1153 25.3411 58.7933 25.714C58.2341 26.3748 57.6071 27.0018 57.014 27.6288C56.387 28.2897 55.7769 28.4253 55.3702 27.9508C54.828 27.3408 55.116 26.8324 55.5905 26.341C56.2006 25.714 56.7429 25.0192 57.3868 24.443C57.8613 24.0024 57.7427 23.7821 57.319 23.4263C56.6073 22.8331 55.9633 22.1553 55.2686 21.5283C54.7771 21.0708 54.6246 20.5624 55.116 20.054C55.6075 19.5456 56.1328 19.6981 56.6073 20.1387C57.2851 20.7827 57.9969 21.3758 58.6239 22.0536C59.0475 22.5112 59.2847 22.4264 59.6576 22.0028C60.3015 21.2572 60.9963 20.5624 61.6741 19.8507C61.9791 19.5287 62.3689 19.4778 62.7587 19.6304C63.1315 19.7829 63.3179 20.0879 63.3009 20.5454C63.3009 20.8505 63.1315 21.0877 62.9112 21.325C62.2842 21.9689 61.6911 22.6637 61.0471 23.2907C60.6404 23.6974 60.5049 23.9516 61.0641 24.3752C61.7758 24.9175 62.3859 25.5953 63.0467 26.2054C63.5551 26.646 63.7924 27.1544 63.267 27.7136Z" fill="#4D57A2"/>
<path d="M70.5033 43.8465C70.5033 42.5586 69.7069 41.796 68.4359 41.796C63.2504 41.7791 58.048 41.796 52.8626 41.7791C52.4389 41.7791 52.2186 41.8977 52.0322 42.2875C51.4052 43.5923 50.4393 44.626 49.1684 45.3038C48.6091 45.5919 48.5244 45.9647 48.5244 46.507C48.5414 51.4722 48.5244 56.4373 48.5414 61.4025C48.5414 63.0632 49.2361 63.758 50.8968 63.758C53.7777 63.758 56.6585 63.758 59.5223 63.758C62.454 63.758 65.3856 63.758 68.3173 63.758C69.673 63.758 70.4694 63.0293 70.4864 61.7075C70.5203 55.7595 70.5203 49.7945 70.5033 43.8465ZM63.6233 56.3865C63.2335 56.8779 62.6404 56.8101 62.0134 56.234C61.4033 55.6748 60.7594 55.1664 60.2341 54.5394C59.6918 53.9124 59.3698 54.0479 58.9123 54.6072C58.387 55.2681 57.76 55.8442 57.1838 56.4712C56.7432 56.9457 56.2518 57.1491 55.7095 56.6746C55.1503 56.1662 55.3197 55.6239 55.7942 55.1325C56.4043 54.5055 56.9635 53.8446 57.5905 53.2345C58.0311 52.8109 58.1497 52.5228 57.5905 52.0653C56.9296 51.5399 56.3534 50.9129 55.7264 50.3537C55.2181 49.8962 54.8791 49.4048 55.4045 48.7608C55.8112 48.2694 56.3704 48.3372 57.0143 48.9303C57.6413 49.5064 58.2853 50.0656 58.8614 50.6757C59.2851 51.1163 59.5732 51.2349 60.0138 50.6757C60.6069 49.9301 61.3017 49.2522 61.9626 48.5575C62.2845 48.2355 62.6573 48.083 63.0979 48.3202C63.4538 48.5066 63.6402 48.8117 63.6233 49.2353C63.6402 49.5573 63.4199 49.7945 63.2165 50.0148C62.5896 50.6927 61.9795 51.4044 61.3017 52.0483C60.878 52.455 60.9627 52.6753 61.3525 53.0142C62.0303 53.6074 62.6743 54.2513 63.3352 54.8444C63.8605 55.3189 64.1147 55.7934 63.6233 56.3865Z" fill="#4D57A2"/>
</svg>
