<svg width="10" height="10" viewBox="0 0 10 10" fill="none" xmlns="http://www.w3.org/2000/svg">
<path d="M0 5C0 2.23858 2.23858 0 5 0C7.76142 0 10 2.23858 10 5C10 7.76142 7.76142 10 5 10C2.23858 10 0 7.76142 0 5Z" fill="#34C759"/>
<path d="M6.76517 3.23438C6.53374 3.00151 6.25848 2.81674 5.95525 2.6907C5.65203 2.56466 5.32684 2.49985 4.99844 2.5C3.61632 2.5 2.5 3.61875 2.5 5C2.5 6.38125 3.61632 7.5 4.99844 7.5C6.16479 7.5 7.13727 6.70313 7.41557 5.625H6.76517C6.63636 5.99047 6.39723 6.30699 6.08078 6.53089C5.76434 6.75478 5.38616 6.87501 4.99844 6.875C3.96341 6.875 3.12226 6.03438 3.12226 5C3.12226 3.96563 3.96341 3.125 4.99844 3.125C5.51751 3.125 5.9803 3.34063 6.31801 3.68125L5.31113 4.6875H7.5V2.5L6.76517 3.23438Z" fill="white"/>
</svg>
