<svg width="14" height="14" viewBox="0 0 14 14" fill="none" xmlns="http://www.w3.org/2000/svg">
<path fill-rule="evenodd" clip-rule="evenodd" d="M1.54562 0.333315C1.22414 0.333315 0.915835 0.46102 0.688518 0.688337C0.461201 0.915654 0.333496 1.22396 0.333496 1.54544V12.4545C0.333496 12.776 0.461201 13.0843 0.688518 13.3116C0.915835 13.5389 1.22414 13.6666 1.54562 13.6666H12.4547C12.7762 13.6666 13.0845 13.5389 13.3118 13.3116C13.5391 13.0843 13.6668 12.776 13.6668 12.4545V8.2121C13.6668 8.05136 13.603 7.89721 13.4893 7.78355C13.3757 7.66989 13.2215 7.60604 13.0608 7.60604C12.9 7.60604 12.7459 7.66989 12.6322 7.78355C12.5186 7.89721 12.4547 8.05136 12.4547 8.2121V12.4545H1.54562V1.54544H5.78804C5.94878 1.54544 6.10293 1.48158 6.21659 1.36792C6.33025 1.25427 6.3941 1.10011 6.3941 0.939376C6.3941 0.778638 6.33025 0.624485 6.21659 0.510826C6.10293 0.397168 5.94878 0.333315 5.78804 0.333315H1.54562ZM13.4899 0.510285C13.6026 0.623272 13.6662 0.776152 13.6668 0.935739V4.57574C13.6668 4.73648 13.603 4.89063 13.4893 5.00429C13.3757 5.11795 13.2215 5.1818 13.0608 5.1818C12.9 5.1818 12.7459 5.11795 12.6322 5.00429C12.5186 4.89063 12.4547 4.73648 12.4547 4.57574V2.40241L6.21713 8.64119C6.16078 8.69754 6.09389 8.74224 6.02026 8.77274C5.94664 8.80323 5.86773 8.81893 5.78804 8.81893C5.70835 8.81893 5.62944 8.80323 5.55582 8.77274C5.48219 8.74224 5.4153 8.69754 5.35895 8.64119C5.3026 8.58484 5.2579 8.51795 5.22741 8.44432C5.19691 8.3707 5.18121 8.29179 5.18121 8.2121C5.18121 8.13241 5.19691 8.0535 5.22741 7.97988C5.2579 7.90626 5.3026 7.83936 5.35895 7.78301L11.5977 1.54544H9.4244C9.26367 1.54544 9.10951 1.48158 8.99585 1.36792C8.88219 1.25427 8.81834 1.10011 8.81834 0.939376C8.81834 0.778638 8.88219 0.624485 8.99585 0.510826C9.10951 0.397168 9.26367 0.333315 9.4244 0.333315H13.0608C13.1404 0.333107 13.2193 0.348633 13.293 0.379002C13.3666 0.409372 13.4335 0.453986 13.4899 0.510285Z" fill="#4F4F4F"/>
</svg>
