<svg width="16" height="13" viewBox="0 0 16 13" fill="none" xmlns="http://www.w3.org/2000/svg">
<path d="M1.25 10.6667H14.75C14.9489 10.6667 15.1397 10.7457 15.2803 10.8863C15.421 11.027 15.5 11.2178 15.5 11.4167C15.5 11.6156 15.421 11.8064 15.2803 11.947C15.1397 12.0877 14.9489 12.1667 14.75 12.1667H1.25C1.05109 12.1667 0.860322 12.0877 0.71967 11.947C0.579018 11.8064 0.5 11.6156 0.5 11.4167C0.5 11.2178 0.579018 11.027 0.71967 10.8863C0.860322 10.7457 1.05109 10.6667 1.25 10.6667ZM2 0.166672H14C14.3978 0.166672 14.7794 0.324707 15.0607 0.606012C15.342 0.887316 15.5 1.26885 15.5 1.66667V9.16667C15.5 9.36559 15.421 9.55635 15.2803 9.697C15.1397 9.83766 14.9489 9.91667 14.75 9.91667H1.25C1.05109 9.91667 0.860322 9.83766 0.71967 9.697C0.579018 9.55635 0.5 9.36559 0.5 9.16667V1.66667C0.5 1.26885 0.658035 0.887316 0.93934 0.606012C1.22064 0.324707 1.60218 0.166672 2 0.166672Z" fill="#4F4F4F"/>
</svg>
