<svg width="16" height="16" viewBox="0 0 16 16" fill="none" xmlns="http://www.w3.org/2000/svg">
<path d="M14 8C14 6.4087 13.3679 4.88258 12.2426 3.75736C11.1174 2.63214 9.5913 2 8 2C6.4087 2 4.88258 2.63214 3.75736 3.75736C2.63214 4.88258 2 6.4087 2 8C2 9.5913 2.63214 11.1174 3.75736 12.2426C4.88258 13.3679 6.4087 14 8 14C9.5913 14 11.1174 13.3679 12.2426 12.2426C13.3679 11.1174 14 9.5913 14 8ZM7.631 7.1825C7.64666 7.09604 7.69217 7.01782 7.75961 6.96149C7.82705 6.90517 7.91213 6.87431 8 6.87431C8.08787 6.87431 8.17295 6.90517 8.24039 6.96149C8.30783 7.01782 8.35334 7.09604 8.369 7.1825L8.375 7.25V10.6265L8.369 10.694C8.35334 10.7805 8.30783 10.8587 8.24039 10.915C8.17295 10.9713 8.08787 11.0022 8 11.0022C7.91213 11.0022 7.82705 10.9713 7.75961 10.915C7.69217 10.8587 7.64666 10.7805 7.631 10.694L7.625 10.6265V7.25L7.631 7.1825ZM7.4375 5.5625C7.4375 5.41332 7.49676 5.27024 7.60225 5.16475C7.70774 5.05926 7.85082 5 8 5C8.14918 5 8.29226 5.05926 8.39775 5.16475C8.50324 5.27024 8.5625 5.41332 8.5625 5.5625C8.5625 5.71168 8.50324 5.85476 8.39775 5.96025C8.29226 6.06574 8.14918 6.125 8 6.125C7.85082 6.125 7.70774 6.06574 7.60225 5.96025C7.49676 5.85476 7.4375 5.71168 7.4375 5.5625Z" fill="#BDBDBD"/>
</svg>
