<svg width="20" height="20" viewBox="0 0 20 20" fill="none" xmlns="http://www.w3.org/2000/svg">
<path d="M9.68221 14.3652C10.1032 14.3652 10.5069 14.1979 10.8046 13.9003C11.1023 13.6026 11.2695 13.1988 11.2695 12.7779C11.2695 11.8969 10.5552 11.1906 9.68221 11.1906C9.26124 11.1906 8.8575 11.3578 8.55982 11.6555C8.26215 11.9531 8.09491 12.3569 8.09491 12.7779C8.09491 13.1988 8.26215 13.6026 8.55982 13.9003C8.8575 14.1979 9.26124 14.3652 9.68221 14.3652ZM14.4441 7.2223C14.8651 7.2223 15.2688 7.38954 15.5665 7.68721C15.8642 7.98489 16.0314 8.38863 16.0314 8.80961V16.7461C16.0314 17.1671 15.8642 17.5708 15.5665 17.8685C15.2688 18.1662 14.8651 18.3334 14.4441 18.3334H4.92031C4.49933 18.3334 4.09559 18.1662 3.79792 17.8685C3.50024 17.5708 3.33301 17.1671 3.33301 16.7461V8.80961C3.33301 7.92865 4.04729 7.2223 4.92031 7.2223H5.71396V5.635C5.71396 4.58256 6.13204 3.57321 6.87623 2.82902C7.62043 2.08483 8.62977 1.66675 9.68221 1.66675C10.2033 1.66675 10.7193 1.76939 11.2008 1.96881C11.6822 2.16824 12.1197 2.46054 12.4882 2.82902C12.8567 3.19751 13.149 3.63497 13.3484 4.11642C13.5478 4.59787 13.6505 5.11388 13.6505 5.635V7.2223H14.4441ZM9.68221 3.25405C9.05075 3.25405 8.44514 3.5049 7.99863 3.95141C7.55211 4.39793 7.30126 5.00353 7.30126 5.635V7.2223H12.0632V5.635C12.0632 5.00353 11.8123 4.39793 11.3658 3.95141C10.9193 3.5049 10.3137 3.25405 9.68221 3.25405Z" fill="#BDBDBD"/>
</svg>
