<svg width="41" height="40" viewBox="0 0 41 40" fill="none" xmlns="http://www.w3.org/2000/svg">
<rect x="2" y="1.5" width="37" height="37" rx="18.5" fill="white"/>
<path d="M20.5 21C21.0523 21 21.5 20.5523 21.5 20C21.5 19.4477 21.0523 19 20.5 19C19.9477 19 19.5 19.4477 19.5 20C19.5 20.5523 19.9477 21 20.5 21Z" stroke="#F8A334" stroke-width="2" stroke-linecap="round" stroke-linejoin="round"/>
<path d="M27.5 21C28.0523 21 28.5 20.5523 28.5 20C28.5 19.4477 28.0523 19 27.5 19C26.9477 19 26.5 19.4477 26.5 20C26.5 20.5523 26.9477 21 27.5 21Z" stroke="#F8A334" stroke-width="2" stroke-linecap="round" stroke-linejoin="round"/>
<path d="M13.5 21C14.0523 21 14.5 20.5523 14.5 20C14.5 19.4477 14.0523 19 13.5 19C12.9477 19 12.5 19.4477 12.5 20C12.5 20.5523 12.9477 21 13.5 21Z" stroke="#F8A334" stroke-width="2" stroke-linecap="round" stroke-linejoin="round"/>
<rect x="2" y="1.5" width="37" height="37" rx="18.5" stroke="#F8A334" stroke-width="3"/>
</svg>
