<svg width="80" height="80" viewBox="0 0 80 80" fill="none" xmlns="http://www.w3.org/2000/svg">
<path d="M40 10V28.4615C43.0602 28.4615 45.995 29.6772 48.1589 31.8411C50.3228 34.005 51.5385 36.9398 51.5385 40C51.5385 43.0602 50.3228 45.995 48.1589 48.1589C45.995 50.3228 43.0602 51.5385 40 51.5385V70C56.5692 70 70 56.5692 70 40C70 23.4308 56.5692 10 40 10Z" fill="#1B7DC1"/>
<path d="M40 70C56.5685 70 70 56.5685 70 40C70 23.4315 56.5685 10 40 10C23.4315 10 10 23.4315 10 40C10 56.5685 23.4315 70 40 70Z" stroke="#4D57A2" stroke-width="5" stroke-miterlimit="10"/>
<path d="M39.9984 28.4615V51.5384C36.9382 51.5384 34.0034 50.3228 31.8395 48.1589C29.6756 45.995 28.46 43.0602 28.46 40C28.46 36.9398 29.6756 34.0049 31.8395 31.8411C34.0034 29.6772 36.9382 28.4615 39.9984 28.4615Z" fill="#4D57A2"/>
</svg>
