<svg width="18" height="18" viewBox="0 0 18 18" fill="none" xmlns="http://www.w3.org/2000/svg">
<path d="M10.822 16.2C10.822 16.6774 10.63 17.1352 10.2883 17.4728C9.94658 17.8104 9.48309 18 8.9998 18C8.51652 18 8.05303 17.8104 7.7113 17.4728C7.36957 17.1352 7.17758 16.6774 7.17758 16.2H10.822ZM8.9998 0C9.24145 0 9.47319 0.0948211 9.64406 0.263604C9.81492 0.432387 9.91092 0.661305 9.91092 0.9V1.872C12.4985 2.304 14.4665 4.527 14.4665 7.2V12.6L17.1998 15.3H0.799805L3.53314 12.6V7.2C3.53314 4.527 5.50114 2.304 8.08869 1.872V0.9C8.08869 0.661305 8.18469 0.432387 8.35555 0.263604C8.52642 0.0948211 8.75816 0 8.9998 0Z" fill="#4F4F4F"/>
</svg>
