<svg width="19" height="13" viewBox="0 0 19 13" fill="none" xmlns="http://www.w3.org/2000/svg">
<path d="M3.16699 0.166672C2.50395 0.166672 1.86807 0.430064 1.39923 0.898905C0.930384 1.36775 0.666992 2.00363 0.666992 2.66667V3.91667H18.167V2.66667C18.167 2.00363 17.9036 1.36775 17.4348 0.898905C16.9659 0.430064 16.33 0.166672 15.667 0.166672H3.16699Z" fill="#4F4F4F"/>
<path d="M0.666992 10.1667V5.16667H18.167V10.1667C18.167 10.8297 17.9036 11.4656 17.4348 11.9344C16.9659 12.4033 16.33 12.6667 15.667 12.6667H3.16699C2.50395 12.6667 1.86807 12.4033 1.39923 11.9344C0.930384 11.4656 0.666992 10.8297 0.666992 10.1667ZM12.542 8.91667C12.3762 8.91667 12.2173 8.98252 12.1 9.09973C11.9828 9.21694 11.917 9.37591 11.917 9.54167C11.917 9.70743 11.9828 9.86641 12.1 9.98362C12.2173 10.1008 12.3762 10.1667 12.542 10.1667H15.042C15.2078 10.1667 15.3667 10.1008 15.4839 9.98362C15.6011 9.86641 15.667 9.70743 15.667 9.54167C15.667 9.37591 15.6011 9.21694 15.4839 9.09973C15.3667 8.98252 15.2078 8.91667 15.042 8.91667H12.542Z" fill="#4F4F4F"/>
</svg>
