<svg width="80" height="80" viewBox="0 0 80 80" fill="none" xmlns="http://www.w3.org/2000/svg">
<path d="M37.001 10L58.895 16.84C59.5056 17.0306 60.0393 17.4114 60.4182 17.9269C60.7971 18.4423 61.0013 19.0653 61.001 19.705V25H67.001C67.7966 25 68.5597 25.3161 69.1223 25.8787C69.6849 26.4413 70.001 27.2044 70.001 28V34H31.001V28C31.001 27.2044 31.317 26.4413 31.8797 25.8787C32.4423 25.3161 33.2053 25 34.001 25H55.001V21.91L37.001 16.282L19.001 21.91V44.122C19.0005 45.9587 19.4217 47.771 20.2321 49.4192C21.0424 51.0675 22.2203 52.5077 23.675 53.629L24.242 54.037L37.001 62.74L48.347 55H34.001C33.2053 55 32.4423 54.6839 31.8797 54.1213C31.317 53.5587 31.001 52.7957 31.001 52V40H70.001V52C70.001 52.7957 69.6849 53.5587 69.1223 54.1213C68.5597 54.6839 67.7966 55 67.001 55L57.341 55.003C56.18 56.533 54.77 57.883 53.141 58.993L37.001 70L20.861 58.996C18.4385 57.3444 16.4562 55.126 15.0864 52.5337C13.7166 49.9415 13.0007 47.0539 13.001 44.122V19.705C13.0013 19.0658 13.2058 18.4435 13.5847 17.9287C13.9635 17.4138 14.4968 17.0335 15.107 16.843L37.001 10Z" fill="#4D57A2"/>
<path d="M67.0029 25H61.0029H55.0029H34.0029C33.2073 25 32.4442 25.3161 31.8816 25.8787C31.319 26.4413 31.0029 27.2044 31.0029 28V34H70.0029V28C70.0029 27.2044 69.6869 26.4413 69.1243 25.8787C68.5616 25.3161 67.7986 25 67.0029 25Z" fill="#1B7DC1"/>
<path d="M34.0029 55H48.3489L57.3429 55.003L67.0029 55C67.7986 55 68.5616 54.6839 69.1243 54.1213C69.6869 53.5587 70.0029 52.7956 70.0029 52V40H31.0029V52C31.0029 52.7956 31.319 53.5587 31.8816 54.1213C32.4442 54.6839 33.2073 55 34.0029 55Z" fill="#1B7DC1"/>
</svg>
