<svg width="16" height="16" viewBox="0 0 16 16" fill="none" xmlns="http://www.w3.org/2000/svg">
<path d="M5.08333 9.25L7.16667 11.75L10.0833 8L13.8333 13H2.16667L5.08333 9.25ZM15.5 13.8333V2.16667C15.5 1.24167 14.75 0.5 13.8333 0.5H2.16667C1.72464 0.5 1.30072 0.675595 0.988155 0.988155C0.675595 1.30072 0.5 1.72464 0.5 2.16667V13.8333C0.5 14.2754 0.675595 14.6993 0.988155 15.0118C1.30072 15.3244 1.72464 15.5 2.16667 15.5H13.8333C14.2754 15.5 14.6993 15.3244 15.0118 15.0118C15.3244 14.6993 15.5 14.2754 15.5 13.8333Z" fill="#4F4F4F"/>
</svg>
