<svg width="15" height="16" viewBox="0 0 15 16" fill="none" xmlns="http://www.w3.org/2000/svg">
<path fill-rule="evenodd" clip-rule="evenodd" d="M0.333008 2.375C0.333008 1.34 1.17301 0.5 2.20801 0.5H4.88658C5.0997 0.5 5.30409 0.584662 5.45479 0.735361C5.60549 0.88606 5.69015 1.09045 5.69015 1.30357C5.69015 1.51669 5.60549 1.72108 5.45479 1.87178C5.30409 2.02248 5.0997 2.10714 4.88658 2.10714H2.20801C2.13697 2.10714 2.06884 2.13536 2.0186 2.1856C1.96837 2.23583 1.94015 2.30396 1.94015 2.375V13.625C1.94015 13.7729 2.06015 13.8929 2.20801 13.8929H4.88658C5.0997 13.8929 5.30409 13.9775 5.45479 14.1282C5.60549 14.2789 5.69015 14.4833 5.69015 14.6964C5.69015 14.9095 5.60549 15.1139 5.45479 15.2646C5.30409 15.4153 5.0997 15.5 4.88658 15.5H2.20801C1.71073 15.5 1.23381 15.3025 0.882183 14.9508C0.530552 14.5992 0.333008 14.1223 0.333008 13.625V2.375ZM11.5187 7.19643H5.42229C5.20917 7.19643 5.00478 7.28109 4.85408 7.43179C4.70338 7.58249 4.61872 7.78688 4.61872 8C4.61872 8.21312 4.70338 8.41751 4.85408 8.56821C5.00478 8.71891 5.20917 8.80357 5.42229 8.80357H11.5187L9.40801 10.9143C9.32906 10.9879 9.26573 11.0766 9.22181 11.1751C9.17789 11.2737 9.15428 11.3801 9.15237 11.488C9.15047 11.5959 9.17032 11.7031 9.21073 11.8031C9.25115 11.9032 9.3113 11.9941 9.38761 12.0704C9.46392 12.1467 9.55481 12.2069 9.65487 12.2473C9.75493 12.2877 9.8621 12.3075 9.97 12.3056C10.0779 12.3037 10.1843 12.2801 10.2829 12.2362C10.3814 12.1923 10.4702 12.1289 10.5437 12.05L14.0259 8.56786C14.1763 8.41719 14.2609 8.21295 14.2609 8C14.2609 7.78705 14.1763 7.58281 14.0259 7.43214L10.5437 3.95C10.4702 3.87105 10.3814 3.80773 10.2829 3.76381C10.1843 3.71989 10.0779 3.69627 9.97 3.69437C9.8621 3.69246 9.75493 3.71231 9.65487 3.75273C9.55481 3.79314 9.46392 3.8533 9.38761 3.9296C9.3113 4.00591 9.25115 4.0968 9.21073 4.19686C9.17032 4.29692 9.15047 4.40409 9.15237 4.51199C9.15428 4.61988 9.17789 4.72629 9.22181 4.82486C9.26573 4.92343 9.32906 5.01215 9.40801 5.08571L11.5187 7.19643Z" fill="#4F4F4F"/>
</svg>
