<svg width="20" height="19" viewBox="0 0 20 19" fill="none" xmlns="http://www.w3.org/2000/svg">
<path d="M10 0C15.5229 0 20 3.48952 20 7.79524C20 12.1 15.5229 15.5895 10 15.5895C9.45007 15.5898 8.90069 15.5548 8.35524 15.4848L4.15714 18.2305C3.68 18.4829 3.51143 18.4552 3.70762 17.8371L4.55714 14.3343C1.81429 12.9438 0 10.5343 0 7.79524C0 3.49048 4.47714 0 10 0ZM15.6257 7.67619L17.0257 6.32C17.1065 6.2361 17.1516 6.12413 17.1514 6.00766C17.1513 5.8912 17.1059 5.77933 17.025 5.69563C16.944 5.61193 16.8337 5.56292 16.7173 5.55894C16.6009 5.55496 16.4875 5.59631 16.401 5.67429L14.5648 7.45143V5.98286C14.5648 5.86364 14.5174 5.7493 14.4331 5.665C14.3488 5.58069 14.2345 5.53333 14.1152 5.53333C13.996 5.53333 13.8817 5.58069 13.7974 5.665C13.7131 5.7493 13.6657 5.86364 13.6657 5.98286V8.4181C13.6489 8.48757 13.6489 8.56005 13.6657 8.62952V10C13.6657 10.1192 13.7131 10.2336 13.7974 10.3179C13.8817 10.4022 13.996 10.4495 14.1152 10.4495C14.2345 10.4495 14.3488 10.4022 14.4331 10.3179C14.5174 10.2336 14.5648 10.1192 14.5648 10V8.70191L14.9714 8.30857L16.3314 10.2448C16.3654 10.2931 16.4085 10.3343 16.4584 10.3659C16.5083 10.3976 16.5639 10.4191 16.6221 10.4293C16.6803 10.4395 16.7399 10.4381 16.7975 10.4252C16.8552 10.4123 16.9098 10.3882 16.9581 10.3543C17.0064 10.3203 17.0476 10.2772 17.0793 10.2273C17.1109 10.1774 17.1325 10.1218 17.1426 10.0636C17.1528 10.0054 17.1514 9.94582 17.1385 9.88817C17.1257 9.83051 17.1016 9.77596 17.0676 9.72762L15.6257 7.67524V7.67619ZM12.8086 9.50857H11.4181V5.99714C11.4128 5.88163 11.3631 5.7726 11.2795 5.69274C11.1959 5.61287 11.0847 5.56831 10.969 5.56831C10.8534 5.56831 10.7422 5.61287 10.6586 5.69274C10.575 5.7726 10.5253 5.88163 10.52 5.99714V9.9581C10.52 10.2057 10.72 10.4076 10.9686 10.4076H12.8086C12.9278 10.4076 13.0421 10.3603 13.1264 10.276C13.2107 10.1917 13.2581 10.0773 13.2581 9.9581C13.2581 9.83887 13.2107 9.72454 13.1264 9.64023C13.0421 9.55593 12.9278 9.50857 12.8086 9.50857ZM7.23048 8.46857L7.89333 6.84286L8.50095 8.46857H7.23048ZM9.63333 8.93333L9.63524 8.9181C9.63501 8.80485 9.59178 8.69591 9.51429 8.61333L8.5181 5.94667C8.47634 5.81959 8.39679 5.70828 8.29009 5.62761C8.18338 5.54695 8.0546 5.50077 7.92095 5.49524C7.78632 5.49465 7.65471 5.53506 7.54361 5.61111C7.43252 5.68716 7.34721 5.79523 7.29905 5.92095L5.71714 9.80191C5.69482 9.85656 5.68348 9.91508 5.68377 9.97412C5.68406 10.0332 5.69597 10.0916 5.71883 10.146C5.7417 10.2004 5.77505 10.2498 5.817 10.2914C5.85896 10.3329 5.90868 10.3658 5.96333 10.3881C6.01799 10.4104 6.07651 10.4218 6.13554 10.4215C6.19458 10.4212 6.25298 10.4093 6.30742 10.3864C6.36185 10.3635 6.41125 10.3302 6.45279 10.2882C6.49433 10.2463 6.5272 10.1966 6.54952 10.1419L6.86381 9.36762H8.83524L9.12 10.1295C9.13936 10.1865 9.16995 10.239 9.20997 10.2839C9.24998 10.3288 9.2986 10.3652 9.35295 10.391C9.4073 10.4168 9.46627 10.4314 9.52636 10.434C9.58646 10.4365 9.64646 10.427 9.70282 10.406C9.75917 10.3849 9.81073 10.3528 9.85443 10.3115C9.89814 10.2702 9.93311 10.2205 9.95727 10.1654C9.98143 10.1103 9.99429 10.0509 9.99509 9.99079C9.99588 9.93064 9.9846 9.87094 9.9619 9.81524L9.63333 8.93333ZM6.46952 6.0019C6.46952 5.88285 6.42229 5.76865 6.3382 5.68438C6.2541 5.6001 6.14001 5.55263 6.02095 5.55238H2.93048C2.81126 5.55238 2.69692 5.59974 2.61261 5.68404C2.52831 5.76835 2.48095 5.88268 2.48095 6.0019C2.48095 6.12113 2.52831 6.23546 2.61261 6.31977C2.69692 6.40407 2.81126 6.45143 2.93048 6.45143H4.03524V10.0095C4.03524 10.1287 4.0826 10.2431 4.1669 10.3274C4.2512 10.4117 4.36554 10.459 4.48476 10.459C4.60398 10.459 4.71832 10.4117 4.80262 10.3274C4.88693 10.2431 4.93429 10.1287 4.93429 10.0095V6.45143H6.02C6.13922 6.45143 6.25356 6.40407 6.33786 6.31977C6.42216 6.23546 6.46952 6.12113 6.46952 6.0019Z" fill="#080504"/>
</svg>
