<svg width="16" height="16" viewBox="0 0 16 16" fill="none" xmlns="http://www.w3.org/2000/svg">
<path d="M8.00001 0.500006C8.99458 0.500006 9.94841 0.895094 10.6517 1.59836C11.3549 2.30162 11.75 3.25545 11.75 4.25001C11.75 5.24458 11.3549 6.19841 10.6517 6.90167C9.94841 7.60493 8.99458 8.00002 8.00001 8.00002C7.00545 8.00002 6.05162 7.60493 5.34836 6.90167C4.6451 6.19841 4.25001 5.24458 4.25001 4.25001C4.25001 3.25545 4.6451 2.30162 5.34836 1.59836C6.05162 0.895094 7.00545 0.500006 8.00001 0.500006ZM8.00001 9.87502C12.1438 9.87502 15.5 11.5532 15.5 13.625V15.5H0.5V13.625C0.5 11.5532 3.85626 9.87502 8.00001 9.87502Z" fill="#4F4F4F"/>
</svg>
