<svg width="20" height="20" viewBox="0 0 20 20" fill="none" xmlns="http://www.w3.org/2000/svg">
<path d="M10 3.75C10.8288 3.75 11.6237 4.07924 12.2097 4.66529C12.7958 5.25134 13.125 6.0462 13.125 6.875C13.125 7.7038 12.7958 8.49866 12.2097 9.08471C11.6237 9.67076 10.8288 10 10 10C9.1712 10 8.37634 9.67076 7.79029 9.08471C7.20424 8.49866 6.875 7.7038 6.875 6.875C6.875 6.0462 7.20424 5.25134 7.79029 4.66529C8.37634 4.07924 9.1712 3.75 10 3.75ZM10 11.5625C13.4531 11.5625 16.25 12.9609 16.25 14.6875V16.25H3.75V14.6875C3.75 12.9609 6.54688 11.5625 10 11.5625Z" fill="#4D57A2"/>
</svg>
