<svg width="18" height="18" viewBox="0 0 18 18" fill="none" xmlns="http://www.w3.org/2000/svg">
<path d="M10.8191 16.2C10.8191 16.6774 10.6271 17.1352 10.2854 17.4728C9.94365 17.8104 9.48016 18 8.99687 18C8.51359 18 8.0501 17.8104 7.70837 17.4728C7.36664 17.1352 7.17465 16.6774 7.17465 16.2H10.8191ZM8.99687 0C9.23852 0 9.47026 0.0948211 9.64113 0.263604C9.81199 0.432387 9.90799 0.661305 9.90799 0.9V1.872C12.4955 2.304 14.4635 4.527 14.4635 7.2V12.6L17.1969 15.3H0.796875L3.53021 12.6V7.2C3.53021 4.527 5.49821 2.304 8.08576 1.872V0.9C8.08576 0.661305 8.18176 0.432387 8.35262 0.263604C8.52349 0.0948211 8.75523 0 8.99687 0Z" fill="#4F4F4F"/>
</svg>
