<svg width="21" height="20" viewBox="0 0 21 20" fill="none" xmlns="http://www.w3.org/2000/svg">
<path d="M9.92602 8.12988H10.8466L10.6591 9.06738H9.73853L9.92602 8.12988Z" fill="#4D57A2"/>
<path d="M6.54175 2.5C6.04447 2.5 5.56755 2.69754 5.21592 3.04917C4.86429 3.40081 4.66675 3.87772 4.66675 4.375V15.625C4.66675 16.1223 4.86429 16.5992 5.21592 16.9508C5.56755 17.3025 6.04447 17.5 6.54175 17.5H15.4517C15.5761 17.5 15.6953 17.4506 15.7832 17.3627C15.8711 17.2748 15.9205 17.1556 15.9205 17.0312C15.9205 16.9069 15.8711 16.7877 15.7832 16.6998C15.6953 16.6119 15.5761 16.5625 15.4517 16.5625H6.54175C6.29327 16.5625 6.05496 16.4639 5.87917 16.2882C5.70338 16.1126 5.6045 15.8744 5.60425 15.6259H15.4517C15.5761 15.6259 15.6953 15.5766 15.7832 15.4886C15.8711 15.4007 15.9205 15.2815 15.9205 15.1572V4.375C15.9205 3.87772 15.723 3.40081 15.3713 3.04917C15.0197 2.69754 14.5428 2.5 14.0455 2.5H6.54175ZM11.7908 5.79156C11.9126 5.816 12.0197 5.88778 12.0886 5.99114C12.1575 6.0945 12.1826 6.22099 12.1583 6.34281L11.9896 7.19219H12.8708C12.9951 7.19219 13.1144 7.24157 13.2023 7.32948C13.2902 7.41739 13.3396 7.53662 13.3396 7.66094C13.3396 7.78526 13.2902 7.90449 13.2023 7.99239C13.1144 8.0803 12.9951 8.12969 12.8708 8.12969H11.8021L11.6146 9.06719H12.6364C12.7608 9.06719 12.88 9.11657 12.9679 9.20448C13.0558 9.29239 13.1052 9.41162 13.1052 9.53594C13.1052 9.66026 13.0558 9.77949 12.9679 9.86739C12.88 9.9553 12.7608 10.0047 12.6364 10.0047H11.428L11.2236 11.0294C11.1957 11.1477 11.1229 11.2505 11.0207 11.3161C10.9184 11.3818 10.7946 11.4052 10.6755 11.3813C10.5563 11.3575 10.4511 11.2883 10.3819 11.1884C10.3128 11.0884 10.2852 10.9655 10.3049 10.8456L10.4717 10.0047H9.55112L9.34581 11.0294C9.3356 11.0915 9.313 11.1508 9.27935 11.204C9.24571 11.2572 9.2017 11.303 9.14996 11.3388C9.09822 11.3746 9.0398 11.3996 8.97819 11.4124C8.91658 11.4251 8.85304 11.4253 8.79134 11.413C8.72965 11.4006 8.67107 11.376 8.6191 11.3405C8.56713 11.3051 8.52283 11.2595 8.48883 11.2066C8.45484 11.1536 8.43185 11.0944 8.42124 11.0324C8.41063 10.9704 8.41261 10.9069 8.42706 10.8456L8.59581 10.0047H7.71644C7.59212 10.0047 7.47289 9.9553 7.38498 9.86739C7.29707 9.77949 7.24769 9.66026 7.24769 9.53594C7.24769 9.41162 7.29707 9.29239 7.38498 9.20448C7.47289 9.11657 7.59212 9.06719 7.71644 9.06719H8.78237L8.96987 8.12969H7.948C7.82368 8.12969 7.70445 8.0803 7.61654 7.99239C7.52863 7.90449 7.47925 7.78526 7.47925 7.66094C7.47925 7.53662 7.52863 7.41739 7.61654 7.32948C7.70445 7.24157 7.82368 7.19219 7.948 7.19219H9.15737L9.36456 6.15906C9.39197 6.04014 9.46467 5.9366 9.56722 5.87044C9.66977 5.80428 9.79407 5.78072 9.91372 5.80477C10.0334 5.82882 10.1389 5.89859 10.2079 5.99923C10.2769 6.09988 10.304 6.22348 10.2833 6.34375L10.1146 7.19219H11.0333L11.2396 6.16C11.2516 6.09961 11.2753 6.04217 11.3095 5.99096C11.3437 5.93976 11.3877 5.8958 11.4389 5.86158C11.4901 5.82737 11.5475 5.80357 11.6079 5.79156C11.6683 5.77955 11.7304 5.77955 11.7908 5.79156Z" fill="#4D57A2"/>
</svg>
