<svg width="21" height="20" viewBox="0 0 21 20" fill="none" xmlns="http://www.w3.org/2000/svg">
<path d="M9.92578 8.12891H10.8464L10.6589 9.06641H9.73828L9.92578 8.12891Z" fill="#828282"/>
<path d="M6.5415 2.5C6.04422 2.5 5.56731 2.69754 5.21568 3.04917C4.86405 3.40081 4.6665 3.87772 4.6665 4.375V15.625C4.6665 16.1223 4.86405 16.5992 5.21568 16.9508C5.56731 17.3025 6.04422 17.5 6.5415 17.5H15.4515C15.5758 17.5 15.6951 17.4506 15.783 17.3627C15.8709 17.2748 15.9203 17.1556 15.9203 17.0312C15.9203 16.9069 15.8709 16.7877 15.783 16.6998C15.6951 16.6119 15.5758 16.5625 15.4515 16.5625H6.5415C6.29303 16.5625 6.05471 16.4639 5.87892 16.2882C5.70313 16.1126 5.60425 15.8744 5.604 15.6259H15.4515C15.5758 15.6259 15.6951 15.5766 15.783 15.4886C15.8709 15.4007 15.9203 15.2815 15.9203 15.1572V4.375C15.9203 3.87772 15.7227 3.40081 15.3711 3.04917C15.0194 2.69754 14.5425 2.5 14.0453 2.5H6.5415ZM11.7906 5.79156C11.9124 5.816 12.0195 5.88778 12.0884 5.99114C12.1573 6.0945 12.1824 6.22099 12.1581 6.34281L11.9893 7.19219H12.8706C12.9949 7.19219 13.1141 7.24157 13.202 7.32948C13.2899 7.41739 13.3393 7.53662 13.3393 7.66094C13.3393 7.78526 13.2899 7.90449 13.202 7.99239C13.1141 8.0803 12.9949 8.12969 12.8706 8.12969H11.8018L11.6143 9.06719H12.6362C12.7605 9.06719 12.8797 9.11657 12.9676 9.20448C13.0556 9.29239 13.1049 9.41162 13.1049 9.53594C13.1049 9.66026 13.0556 9.77949 12.9676 9.86739C12.8797 9.9553 12.7605 10.0047 12.6362 10.0047H11.4278L11.2234 11.0294C11.1955 11.1477 11.1227 11.2505 11.0204 11.3161C10.9182 11.3818 10.7944 11.4052 10.6752 11.3813C10.5561 11.3575 10.4508 11.2883 10.3817 11.1884C10.3125 11.0884 10.2849 10.9655 10.3046 10.8456L10.4715 10.0047H9.55088L9.34557 11.0294C9.33536 11.0915 9.31276 11.1508 9.27911 11.204C9.24546 11.2572 9.20146 11.303 9.14972 11.3388C9.09798 11.3746 9.03956 11.3996 8.97795 11.4124C8.91634 11.4251 8.85279 11.4253 8.7911 11.413C8.72941 11.4006 8.67083 11.376 8.61886 11.3405C8.56688 11.3051 8.52258 11.2595 8.48859 11.2066C8.4546 11.1536 8.43161 11.0944 8.42099 11.0324C8.41038 10.9704 8.41236 10.9069 8.42682 10.8456L8.59557 10.0047H7.71619C7.59187 10.0047 7.47264 9.9553 7.38474 9.86739C7.29683 9.77949 7.24744 9.66026 7.24744 9.53594C7.24744 9.41162 7.29683 9.29239 7.38474 9.20448C7.47264 9.11657 7.59187 9.06719 7.71619 9.06719H8.78213L8.96963 8.12969H7.94775C7.82343 8.12969 7.70421 8.0803 7.6163 7.99239C7.52839 7.90449 7.479 7.78526 7.479 7.66094C7.479 7.53662 7.52839 7.41739 7.6163 7.32948C7.70421 7.24157 7.82343 7.19219 7.94775 7.19219H9.15713L9.36432 6.15906C9.39172 6.04014 9.46443 5.9366 9.56697 5.87044C9.66952 5.80428 9.79383 5.78072 9.91347 5.80477C10.0331 5.82883 10.1387 5.89859 10.2077 5.99923C10.2767 6.09988 10.3037 6.22348 10.2831 6.34375L10.1143 7.19219H11.0331L11.2393 6.16C11.2513 6.09961 11.2751 6.04217 11.3093 5.99096C11.3435 5.93976 11.3874 5.8958 11.4386 5.86158C11.4898 5.82737 11.5472 5.80357 11.6076 5.79156C11.668 5.77955 11.7302 5.77955 11.7906 5.79156Z" fill="#828282"/>
</svg>
