<svg width="20" height="20" viewBox="0 0 20 20" fill="none" xmlns="http://www.w3.org/2000/svg">
<path d="M3.25 14.6667H16.75C16.9489 14.6667 17.1397 14.7458 17.2803 14.8864C17.421 15.0271 17.5 15.2178 17.5 15.4167C17.5 15.6157 17.421 15.8064 17.2803 15.9471C17.1397 16.0877 16.9489 16.1667 16.75 16.1667H3.25C3.05109 16.1667 2.86032 16.0877 2.71967 15.9471C2.57902 15.8064 2.5 15.6157 2.5 15.4167C2.5 15.2178 2.57902 15.0271 2.71967 14.8864C2.86032 14.7458 3.05109 14.6667 3.25 14.6667ZM4 4.16675H16C16.3978 4.16675 16.7794 4.32478 17.0607 4.60609C17.342 4.88739 17.5 5.26892 17.5 5.66675V13.1667C17.5 13.3657 17.421 13.5564 17.2803 13.6971C17.1397 13.8377 16.9489 13.9167 16.75 13.9167H3.25C3.05109 13.9167 2.86032 13.8377 2.71967 13.6971C2.57902 13.5564 2.5 13.3657 2.5 13.1667V5.66675C2.5 5.26892 2.65804 4.88739 2.93934 4.60609C3.22064 4.32478 3.60218 4.16675 4 4.16675Z" fill="#828282"/>
</svg>
