<svg width="18" height="18" viewBox="0 0 18 18" fill="none" xmlns="http://www.w3.org/2000/svg">
<path d="M11.763 8.325L10.953 9.153C10.305 9.801 9.9 10.35 9.9 11.7H8.1V11.25C8.1 10.251 8.505 9.351 9.153 8.703L10.269 7.569C10.602 7.245 10.8 6.795 10.8 6.3C10.8 5.301 9.99 4.5 9 4.5C8.52261 4.5 8.06477 4.68964 7.72721 5.02721C7.38964 5.36477 7.2 5.82261 7.2 6.3H5.4C5.4 5.34522 5.77928 4.42955 6.45442 3.75442C7.12955 3.07928 8.04522 2.7 9 2.7C9.95478 2.7 10.8705 3.07928 11.5456 3.75442C12.2207 4.42955 12.6 5.34522 12.6 6.3C12.6 7.092 12.276 7.803 11.763 8.325ZM9.9 15.3H8.1V13.5H9.9V15.3ZM9 0C7.8181 0 6.64778 0.232792 5.55585 0.685084C4.46392 1.13738 3.47177 1.80031 2.63604 2.63604C0.948211 4.32387 0 6.61305 0 9C0 11.3869 0.948211 13.6761 2.63604 15.364C3.47177 16.1997 4.46392 16.8626 5.55585 17.3149C6.64778 17.7672 7.8181 18 9 18C11.3869 18 13.6761 17.0518 15.364 15.364C17.0518 13.6761 18 11.3869 18 9C18 4.023 13.95 0 9 0Z" fill="#4F4F4F"/>
</svg>
