<svg width="20" height="20" viewBox="0 0 20 20" fill="none" xmlns="http://www.w3.org/2000/svg">
<path d="M4.1665 4.16675C3.50346 4.16675 2.86758 4.43014 2.39874 4.89898C1.9299 5.36782 1.6665 6.00371 1.6665 6.66675V7.91675H19.1665V6.66675C19.1665 6.00371 18.9031 5.36782 18.4343 4.89898C17.9654 4.43014 17.3295 4.16675 16.6665 4.16675H4.1665Z" fill="#4D57A2"/>
<path d="M1.6665 14.1667V9.16675H19.1665V14.1667C19.1665 14.8298 18.9031 15.4657 18.4343 15.9345C17.9654 16.4034 17.3295 16.6667 16.6665 16.6667H4.1665C3.50346 16.6667 2.86758 16.4034 2.39874 15.9345C1.9299 15.4657 1.6665 14.8298 1.6665 14.1667ZM13.5415 12.9167C13.3757 12.9167 13.2168 12.9826 13.0996 13.0998C12.9824 13.217 12.9165 13.376 12.9165 13.5417C12.9165 13.7075 12.9824 13.8665 13.0996 13.9837C13.2168 14.1009 13.3757 14.1667 13.5415 14.1667H16.0415C16.2073 14.1667 16.3662 14.1009 16.4834 13.9837C16.6007 13.8665 16.6665 13.7075 16.6665 13.5417C16.6665 13.376 16.6007 13.217 16.4834 13.0998C16.3662 12.9826 16.2073 12.9167 16.0415 12.9167H13.5415Z" fill="#4D57A2"/>
</svg>
