<svg width="20" height="20" viewBox="0 0 20 20" fill="none" xmlns="http://www.w3.org/2000/svg">
<path d="M4.16675 4.16675C3.50371 4.16675 2.86782 4.43014 2.39898 4.89898C1.93014 5.36782 1.66675 6.00371 1.66675 6.66675V7.91675H19.1667V6.66675C19.1667 6.00371 18.9034 5.36782 18.4345 4.89898C17.9657 4.43014 17.3298 4.16675 16.6667 4.16675H4.16675Z" fill="#828282"/>
<path d="M1.66675 14.1667V9.16675H19.1667V14.1667C19.1667 14.8298 18.9034 15.4657 18.4345 15.9345C17.9657 16.4034 17.3298 16.6667 16.6667 16.6667H4.16675C3.50371 16.6667 2.86782 16.4034 2.39898 15.9345C1.93014 15.4657 1.66675 14.8298 1.66675 14.1667ZM13.5417 12.9167C13.376 12.9167 13.217 12.9826 13.0998 13.0998C12.9826 13.217 12.9167 13.376 12.9167 13.5417C12.9167 13.7075 12.9826 13.8665 13.0998 13.9837C13.217 14.1009 13.376 14.1667 13.5417 14.1667H16.0417C16.2075 14.1667 16.3665 14.1009 16.4837 13.9837C16.6009 13.8665 16.6667 13.7075 16.6667 13.5417C16.6667 13.376 16.6009 13.217 16.4837 13.0998C16.3665 12.9826 16.2075 12.9167 16.0417 12.9167H13.5417Z" fill="#828282"/>
</svg>
