<svg width="20" height="20" viewBox="0 0 20 20" fill="none" xmlns="http://www.w3.org/2000/svg">
<path fill-rule="evenodd" clip-rule="evenodd" d="M3.33325 4.375C3.33325 3.34 4.17325 2.5 5.20825 2.5H7.88682C8.09994 2.5 8.30434 2.58466 8.45503 2.73536C8.60573 2.88606 8.69039 3.09045 8.69039 3.30357C8.69039 3.51669 8.60573 3.72108 8.45503 3.87178C8.30434 4.02248 8.09994 4.10714 7.88682 4.10714H5.20825C5.13721 4.10714 5.06908 4.13536 5.01885 4.1856C4.96862 4.23583 4.94039 4.30396 4.94039 4.375V15.625C4.94039 15.7729 5.06039 15.8929 5.20825 15.8929H7.88682C8.09994 15.8929 8.30434 15.9775 8.45503 16.1282C8.60573 16.2789 8.69039 16.4833 8.69039 16.6964C8.69039 16.9095 8.60573 17.1139 8.45503 17.2646C8.30434 17.4153 8.09994 17.5 7.88682 17.5H5.20825C4.71097 17.5 4.23406 17.3025 3.88243 16.9508C3.5308 16.5992 3.33325 16.1223 3.33325 15.625V4.375ZM14.519 9.19643H8.42254C8.20942 9.19643 8.00503 9.28109 7.85433 9.43179C7.70363 9.58249 7.61897 9.78688 7.61897 10C7.61897 10.2131 7.70363 10.4175 7.85433 10.5682C8.00503 10.7189 8.20942 10.8036 8.42254 10.8036H14.519L12.4083 12.9143C12.3293 12.9879 12.266 13.0766 12.2221 13.1751C12.1781 13.2737 12.1545 13.3801 12.1526 13.488C12.1507 13.5959 12.1706 13.7031 12.211 13.8031C12.2514 13.9032 12.3115 13.9941 12.3879 14.0704C12.4642 14.1467 12.5551 14.2069 12.6551 14.2473C12.7552 14.2877 12.8623 14.3075 12.9702 14.3056C13.0781 14.3037 13.1845 14.2801 13.2831 14.2362C13.3817 14.1923 13.4704 14.1289 13.544 14.05L17.0261 10.5679C17.1766 10.4172 17.2611 10.2129 17.2611 10C17.2611 9.78705 17.1766 9.58281 17.0261 9.43214L13.544 5.95C13.4704 5.87105 13.3817 5.80773 13.2831 5.76381C13.1845 5.71989 13.0781 5.69627 12.9702 5.69437C12.8623 5.69246 12.7552 5.71231 12.6551 5.75273C12.5551 5.79314 12.4642 5.8533 12.3879 5.9296C12.3115 6.00591 12.2514 6.0968 12.211 6.19686C12.1706 6.29692 12.1507 6.40409 12.1526 6.51199C12.1545 6.61988 12.1781 6.72629 12.2221 6.82486C12.266 6.92343 12.3293 7.01215 12.4083 7.08571L14.519 9.19643Z" fill="#828282"/>
</svg>
