<svg width="20" height="20" viewBox="0 0 20 20" fill="none" xmlns="http://www.w3.org/2000/svg">
<path fill-rule="evenodd" clip-rule="evenodd" d="M3.33203 4.375C3.33203 3.34 4.17203 2.5 5.20703 2.5H7.8856C8.09872 2.5 8.30311 2.58466 8.45381 2.73536C8.60451 2.88606 8.68917 3.09045 8.68917 3.30357C8.68917 3.51669 8.60451 3.72108 8.45381 3.87178C8.30311 4.02248 8.09872 4.10714 7.8856 4.10714H5.20703C5.13599 4.10714 5.06786 4.13536 5.01763 4.1856C4.96739 4.23583 4.93917 4.30396 4.93917 4.375V15.625C4.93917 15.7729 5.05917 15.8929 5.20703 15.8929H7.8856C8.09872 15.8929 8.30311 15.9775 8.45381 16.1282C8.60451 16.2789 8.68917 16.4833 8.68917 16.6964C8.68917 16.9095 8.60451 17.1139 8.45381 17.2646C8.30311 17.4153 8.09872 17.5 7.8856 17.5H5.20703C4.70975 17.5 4.23284 17.3025 3.88121 16.9508C3.52958 16.5992 3.33203 16.1223 3.33203 15.625V4.375ZM14.5177 9.19643H8.42132C8.2082 9.19643 8.0038 9.28109 7.85311 9.43179C7.70241 9.58249 7.61775 9.78688 7.61775 10C7.61775 10.2131 7.70241 10.4175 7.85311 10.5682C8.0038 10.7189 8.2082 10.8036 8.42132 10.8036H14.5177L12.407 12.9143C12.3281 12.9879 12.2648 13.0766 12.2208 13.1751C12.1769 13.2737 12.1533 13.3801 12.1514 13.488C12.1495 13.5959 12.1693 13.7031 12.2098 13.8031C12.2502 13.9032 12.3103 13.9941 12.3866 14.0704C12.4629 14.1467 12.5538 14.2069 12.6539 14.2473C12.7539 14.2877 12.8611 14.3075 12.969 14.3056C13.0769 14.3037 13.1833 14.2801 13.2819 14.2362C13.3805 14.1923 13.4692 14.1289 13.5427 14.05L17.0249 10.5679C17.1754 10.4172 17.2599 10.2129 17.2599 10C17.2599 9.78705 17.1754 9.58281 17.0249 9.43214L13.5427 5.95C13.4692 5.87105 13.3805 5.80773 13.2819 5.76381C13.1833 5.71989 13.0769 5.69627 12.969 5.69437C12.8611 5.69246 12.7539 5.71231 12.6539 5.75273C12.5538 5.79314 12.4629 5.8533 12.3866 5.9296C12.3103 6.00591 12.2502 6.0968 12.2098 6.19686C12.1693 6.29692 12.1495 6.40409 12.1514 6.51199C12.1533 6.61988 12.1769 6.72629 12.2208 6.82486C12.2648 6.92343 12.3281 7.01215 12.407 7.08571L14.5177 9.19643V9.19643Z" fill="#1B7DC1"/>
</svg>
