<svg width="20" height="20" viewBox="0 0 20 20" fill="none"
  xmlns="http://www.w3.org/2000/svg">
  <path d="M3.96202 14.9163L2.96265 14.5129C2.78065 14.4392 2.63536 14.2963 2.55872 14.1156C2.48209 13.9348 2.4804 13.731 2.55402 13.549L3.96202 10.0638V14.9163ZM7.55974 16.4546H6.18284C5.9865 16.4546 5.79821 16.3766 5.65938 16.2378C5.52056 16.099 5.44256 15.9107 5.44256 15.7143V11.215L7.55974 16.4546ZM5.45885 5.32682L12.3227 2.55376C12.5046 2.48037 12.7082 2.48219 12.8888 2.5588C13.0693 2.63542 13.2121 2.78058 13.2858 2.96239L17.4461 13.2581C17.4825 13.3483 17.5008 13.4447 17.5 13.542C17.4991 13.6392 17.4791 13.7353 17.4411 13.8248C17.4031 13.9143 17.3478 13.9955 17.2784 14.0636C17.209 14.1318 17.1269 14.1856 17.0367 14.2219L10.1729 16.995C10.0827 17.0314 9.98629 17.0497 9.88904 17.0489C9.7918 17.048 9.69568 17.028 9.60617 16.99C9.51667 16.952 9.43553 16.8967 9.36739 16.8273C9.29926 16.7579 9.24546 16.6758 9.20907 16.5856L5.05022 6.29066C4.97687 6.10865 4.97879 5.90497 5.05555 5.72438C5.13231 5.54378 5.27764 5.40105 5.45959 5.32756L5.45885 5.32682ZM7.66338 7.57133C7.85971 7.57133 8.048 7.49334 8.18683 7.35451C8.32566 7.21568 8.40365 7.02739 8.40365 6.83106C8.40365 6.63473 8.32566 6.44643 8.18683 6.30761C8.048 6.16878 7.85971 6.09078 7.66338 6.09078C7.46705 6.09078 7.27876 6.16878 7.13993 6.30761C7.0011 6.44643 6.92311 6.63473 6.92311 6.83106C6.92311 7.02739 7.0011 7.21568 7.13993 7.35451C7.27876 7.49334 7.46705 7.57133 7.66338 7.57133Z" fill="#4D57A2"/>
</svg>
