<svg width="80" height="80" viewBox="0 0 80 80" fill="none" xmlns="http://www.w3.org/2000/svg">
<path d="M28.3333 45L36.6667 55L48.3333 40L63.3333 60H16.6667L28.3333 45ZM70 63.3333V16.6667C70 12.9667 67 10 63.3333 10H16.6667C14.8986 10 13.2029 10.7024 11.9526 11.9526C10.7024 13.2029 10 14.8986 10 16.6667V63.3333C10 65.1014 10.7024 66.7971 11.9526 68.0474C13.2029 69.2976 14.8986 70 16.6667 70H63.3333C65.1014 70 66.7971 69.2976 68.0474 68.0474C69.2976 66.7971 70 65.1014 70 63.3333Z" fill="#E4E4E4"/>
</svg>
