<svg width="10" height="10" viewBox="0 0 10 10" fill="none" xmlns="http://www.w3.org/2000/svg">
<path d="M8.75 0.5H1.25C1.05115 0.500199 0.860499 0.57928 0.719889 0.719889C0.57928 0.860499 0.500199 1.05115 0.5 1.25V8.75C0.500199 8.94885 0.57928 9.1395 0.719889 9.28011C0.860499 9.42072 1.05115 9.4998 1.25 9.5H8.75C8.94885 9.4998 9.1395 9.42072 9.28011 9.28011C9.42072 9.1395 9.4998 8.94885 9.5 8.75V1.25C9.4998 1.05115 9.42072 0.860499 9.28011 0.719889C9.1395 0.57928 8.94885 0.500199 8.75 0.5ZM1.25 8.75L8.75 1.25V8.75H1.25Z" fill="#4F4F4F"/>
</svg>
